<svg data-v-423bf9ae="" xmlns="http://www.w3.org/2000/svg" viewBox="0 0 1219.4419642857142 193" class="fontAboveSlogan"><!----><!----><!----><g data-v-423bf9ae="" id="22716983-72c9-45be-bfdc-c0304240fa34" fill="#FFFFFF" transform="matrix(9.842999458312988,0,0,9.842999458312988,-9.641829490661621,-35.71219253540039)"><path d="M9.32 15.53C9.32 15.68 9.20 15.81 9.06 15.81L7.41 15.81C7.27 15.81 7.14 15.68 7.14 15.53L7.14 10.88L3.30 10.88L3.30 15.53C3.30 15.68 3.19 15.81 3.04 15.81L1.40 15.81C1.25 15.81 1.12 15.68 1.12 15.53L1.12 4.10C1.12 3.92 1.25 3.77 1.40 3.77L3.04 3.77C3.19 3.77 3.30 3.92 3.30 4.10L3.30 8.69L7.14 8.69L7.14 4.10C7.14 3.92 7.27 3.77 7.41 3.77L9.06 3.77C9.20 3.77 9.32 3.92 9.32 4.10ZM19.77 12.05C19.77 13.22 19.29 14.22 18.41 14.92C17.67 15.50 16.70 15.82 15.67 15.82C14.63 15.82 13.66 15.50 12.92 14.92C12.04 14.22 11.56 13.22 11.56 12.05L11.56 4.07C11.56 3.92 11.69 3.78 11.84 3.78L13.48 3.78C13.64 3.78 13.75 3.92 13.75 4.07L13.75 12.05C13.75 13.58 15.47 13.64 15.67 13.64C15.86 13.64 17.58 13.58 17.58 12.05L17.58 4.07C17.58 3.92 17.71 3.78 17.85 3.78L19.50 3.78C19.64 3.78 19.77 3.92 19.77 4.07ZM29.65 15.89L23.63 9.32L23.63 15.53C23.63 15.68 23.52 15.81 23.37 15.81L21.73 15.81C21.57 15.81 21.45 15.68 21.45 15.53L21.45 3.70L27.47 10.26L27.47 4.06C27.47 3.91 27.59 3.78 27.73 3.78L29.39 3.78C29.53 3.78 29.65 3.91 29.65 4.06ZM41.19 8.79C41.15 8.74 41.09 8.71 41.02 8.71L37.18 8.71C37.03 8.71 36.92 8.83 36.92 8.99L36.92 10.63C36.92 10.78 37.03 10.89 37.18 10.89L39.10 10.89L39.10 12.95C37.44 14.11 35.13 13.76 33.88 12.12C32.59 10.44 32.91 8.04 34.59 6.76C35.92 5.75 37.70 5.74 39.02 6.61C39.12 6.66 39.24 6.66 39.33 6.59L40.68 5.56C40.81 5.46 40.82 5.29 40.73 5.17C40.73 5.15 40.71 5.14 40.70 5.12L40.66 5.10C38.56 3.42 35.50 3.32 33.28 5.03C30.63 7.04 30.13 10.82 32.14 13.45C33.80 15.62 36.67 16.35 39.10 15.41C39.62 15.20 40.11 14.94 40.57 14.59C40.80 14.41 41.01 14.22 41.20 14.03L41.20 14.01C41.26 13.97 41.29 13.90 41.29 13.82L41.29 8.99C41.29 8.90 41.26 8.85 41.19 8.79ZM51.17 15.54C51.17 15.69 51.04 15.82 50.90 15.82L43.25 15.82C43.09 15.82 42.97 15.69 42.97 15.54L42.97 4.06C42.97 3.91 43.09 3.78 43.25 3.78L50.62 3.78C50.78 3.78 50.90 3.91 50.90 4.06L50.90 5.70C50.90 5.85 50.78 5.96 50.62 5.96L45.15 5.96L45.15 8.71L50.34 8.71C50.50 8.71 50.62 8.82 50.62 8.97L50.62 10.61C50.62 10.77 50.50 10.89 50.34 10.89L45.15 10.89L45.15 13.62L50.90 13.62C51.04 13.62 51.17 13.75 51.17 13.90ZM60.42 15.37L58.20 11.42L57.89 10.89L57.82 10.77C59.85 10.32 60.90 8.82 60.90 7.35C60.90 6.38 60.45 5.46 59.68 4.82C58.90 4.14 57.79 3.79 56.52 3.79L52.43 3.79C52.28 3.79 52.15 3.92 52.15 4.06L52.15 5.17L52.29 5.42L52.29 5.43L54.15 8.71L52.15 8.71L52.15 15.54C52.15 15.69 52.28 15.82 52.43 15.82L54.07 15.82C54.21 15.82 54.33 15.69 54.33 15.54L54.33 10.89L55.38 10.89L55.68 11.42L58.07 15.65L58.10 15.69C58.14 15.76 58.23 15.82 58.32 15.82L60.20 15.82C60.35 15.82 60.47 15.69 60.47 15.53C60.47 15.48 60.47 15.44 60.44 15.40ZM56.36 8.19L55.12 5.98L56.52 5.98C58.03 5.98 58.70 6.69 58.70 7.35C58.70 7.91 58.20 8.53 57.06 8.68C56.94 8.69 56.80 8.71 56.66 8.71ZM76.50 9.80C77.25 9.13 77.63 8.23 77.63 7.34C77.63 6.38 77.20 5.46 76.43 4.80C75.63 4.13 74.54 3.78 73.26 3.78L69.16 3.78C69.01 3.78 68.88 3.91 68.88 4.07L68.88 5.21L71.22 8.71L68.88 8.71L68.88 15.53C68.88 15.68 69.01 15.82 69.16 15.82L73.26 15.82C76.13 15.82 77.63 14.03 77.63 12.26C77.63 11.33 77.22 10.44 76.50 9.80ZM72.02 5.96L73.26 5.96C74.76 5.96 75.45 6.68 75.45 7.34C75.45 7.91 74.93 8.51 73.82 8.67ZM71.06 13.62L71.06 10.89L73.26 10.89C74.76 10.89 75.45 11.61 75.45 12.26C75.45 12.92 74.76 13.62 73.26 13.62ZM86.88 11.16C86.88 11.00 86.76 10.89 86.60 10.89L85.68 10.89L83.97 4.05L83.96 3.98C83.92 3.88 83.82 3.81 83.71 3.81L81.87 3.81C81.76 3.81 81.66 3.88 81.62 3.98L81.61 4.06L78.76 15.41C78.76 15.43 78.76 15.44 78.75 15.44L78.75 15.50C78.75 15.67 78.88 15.79 79.02 15.79L80.71 15.79C80.82 15.79 80.93 15.71 80.96 15.60C80.96 15.58 80.98 15.57 80.98 15.57L81.59 13.06L83.99 13.06L84.60 15.55L84.62 15.60C84.66 15.71 84.76 15.79 84.87 15.79L86.56 15.79C86.72 15.79 86.83 15.67 86.83 15.50L86.83 15.47L86.81 15.40L86.23 13.06L86.60 13.06C86.76 13.06 86.88 12.95 86.88 12.80ZM82.14 10.89L82.80 8.30L83.44 10.89ZM96.49 12.28C96.49 12.38 96.47 13.22 95.94 14.07C95.45 14.88 94.44 15.83 92.39 15.83C90.76 15.83 89.49 15.15 88.80 13.93C88.48 13.34 88.35 12.77 88.31 12.40C88.31 12.38 88.30 12.35 88.30 12.32C88.30 12.18 88.41 12.05 88.55 12.04L90.27 12.04C90.38 12.05 90.47 12.12 90.50 12.24L90.50 12.25C90.50 12.26 90.51 12.28 90.51 12.29C90.54 12.46 90.61 12.70 90.75 12.91C91.04 13.40 91.59 13.65 92.39 13.65C93.24 13.65 93.79 13.41 94.08 12.94C94.28 12.61 94.30 12.26 94.30 12.26C94.30 11.87 94.21 11.41 93.48 11.12C92.95 10.89 92.39 10.88 92.39 10.88C92.29 10.88 91.39 10.86 90.47 10.50C89.05 9.93 88.28 8.81 88.28 7.34C88.28 7.20 88.31 5.89 89.33 4.87C90.06 4.13 91.10 3.75 92.39 3.75C93.21 3.75 94.40 3.93 95.31 4.86C96.19 5.75 96.42 6.89 96.47 7.45L96.47 7.48C96.47 7.64 96.36 7.77 96.21 7.77L94.51 7.77C94.40 7.76 94.30 7.66 94.28 7.55L94.28 7.50C94.23 7.31 94.16 7.03 94.02 6.75C93.83 6.40 93.45 5.94 92.39 5.94C91.70 5.94 91.20 6.09 90.87 6.41C90.50 6.79 90.47 7.34 90.47 7.34C90.47 7.73 90.57 8.18 91.29 8.47C91.83 8.68 92.39 8.69 92.39 8.69C92.48 8.69 93.38 8.71 94.30 9.09C95.72 9.67 96.49 10.81 96.49 12.28ZM106.09 15.53C106.09 15.68 105.98 15.81 105.83 15.81L103.82 15.81C103.74 15.81 103.67 15.78 103.61 15.71L103.60 15.68L100.21 10.92L100.21 15.53C100.21 15.68 100.10 15.81 99.95 15.81L98.31 15.81C98.15 15.81 98.03 15.68 98.03 15.53L98.03 8.69L99.32 8.69L98.06 4.20L98.03 4.09L98.03 4.06C98.03 3.91 98.15 3.78 98.31 3.78L100.02 3.78C100.13 3.78 100.24 3.86 100.27 3.98L101.37 7.92L103.59 3.93C103.64 3.84 103.73 3.78 103.84 3.78L105.70 3.78C105.85 3.78 105.98 3.91 105.98 4.06C105.98 4.10 105.97 4.14 105.95 4.19L105.92 4.23L102.51 10.37L106.02 15.33L106.06 15.37C106.08 15.41 106.09 15.47 106.09 15.53ZM115.84 15.54C115.84 15.69 115.71 15.82 115.57 15.82L107.91 15.82C107.76 15.82 107.63 15.69 107.63 15.54L107.63 4.06C107.63 3.91 107.76 3.78 107.91 3.78L115.29 3.78C115.44 3.78 115.57 3.91 115.57 4.06L115.57 5.70C115.57 5.85 115.44 5.96 115.29 5.96L109.82 5.96L109.82 8.71L115.01 8.71C115.16 8.71 115.29 8.82 115.29 8.97L115.29 10.61C115.29 10.77 115.16 10.89 115.01 10.89L109.82 10.89L109.82 13.62L115.57 13.62C115.71 13.62 115.84 13.75 115.84 13.90ZM124.81 5.68C124.81 5.84 124.66 5.96 124.47 5.96L121.80 5.96L121.80 15.47C121.80 15.65 121.67 15.81 121.53 15.81L119.88 15.81C119.74 15.81 119.62 15.65 119.62 15.47L119.62 5.96L116.89 5.96C116.73 5.96 116.61 5.84 116.61 5.68L116.61 4.05C116.61 3.89 116.73 3.78 116.89 3.78L124.47 3.78C124.66 3.78 124.81 3.89 124.81 4.05Z"></path></g><!----><!----><g data-v-423bf9ae="" id="19497fe9-4662-4b37-8600-3a308a798571" fill="#FFFFFF" transform="matrix(5.714285850524902,0,0,5.714285850524902,-3.9955852031707764,119.00446319580078)"><path d="M1.16 7.70C1.16 6.33 1.54 5.22 2.30 4.38C3.06 3.53 4.07 3.11 5.32 3.11C6.51 3.11 7.56 3.54 8.47 4.41L8.47 3.81C7.62 3.06 6.57 2.69 5.32 2.69C3.97 2.69 2.86 3.16 2.00 4.09C1.13 5.03 0.70 6.23 0.70 7.70C0.70 9.17 1.13 10.37 2.00 11.30C2.86 12.24 3.97 12.71 5.32 12.71C6.57 12.71 7.62 12.34 8.47 11.59L8.47 11.03C7.60 11.87 6.55 12.29 5.32 12.29C4.07 12.29 3.06 11.87 2.30 11.03C1.54 10.18 1.16 9.07 1.16 7.70ZM18.27 2.80ZM17.85 2.80L17.85 12.60L18.27 12.60L18.27 8.48L19.82 8.48L22.95 12.60L23.49 12.60L20.30 8.47C21.20 8.41 21.91 8.15 22.45 7.67C22.99 7.20 23.25 6.52 23.25 5.64C23.25 4.71 22.95 4.00 22.34 3.52C21.74 3.04 20.94 2.80 19.95 2.80ZM18.27 3.21L19.95 3.21C20.82 3.21 21.51 3.41 22.04 3.83C22.56 4.24 22.82 4.85 22.82 5.64C22.82 6.44 22.56 7.04 22.04 7.45C21.51 7.87 20.82 8.08 19.95 8.08L18.27 8.08ZM35.11 2.45L30.84 12.60L31.33 12.60L32.61 9.52L37.62 9.52L38.89 12.60L39.38 12.60ZM35.11 3.50L37.42 9.07L32.80 9.07ZM49.95 12.03L46.17 2.80L45.68 2.80L49.95 12.95L54.22 2.80L53.73 2.80ZM62.62 2.80L62.62 12.60L63.04 12.60L63.04 2.80ZM79.42 2.80L79.42 11.79L71.93 2.45L71.93 12.60L72.35 12.60L72.35 3.61L79.84 12.95L79.84 2.80ZM97.48 7.63L93.42 7.63L93.42 8.11L97.01 8.11C96.92 9.32 96.53 10.32 95.82 11.09C95.11 11.87 94.17 12.26 93.00 12.26C91.71 12.26 90.67 11.82 89.88 10.94C89.09 10.06 88.69 8.98 88.69 7.70C88.69 6.40 89.09 5.32 89.90 4.45C90.71 3.57 91.74 3.14 93.00 3.14C93.75 3.14 94.44 3.31 95.08 3.65C95.72 4.00 96.23 4.47 96.61 5.05L97.01 4.75C96.57 4.11 96.01 3.61 95.33 3.24C94.64 2.87 93.87 2.69 93.00 2.69C91.65 2.69 90.52 3.17 89.61 4.13C88.70 5.09 88.24 6.28 88.24 7.70C88.24 9.12 88.70 10.31 89.61 11.27C90.52 12.23 91.65 12.71 93.00 12.71C94.37 12.71 95.46 12.22 96.27 11.23C97.08 10.25 97.48 9.05 97.48 7.63ZM106.19 9.74L105.81 9.90C106.44 11.77 107.49 12.71 108.96 12.71C109.88 12.71 110.57 12.45 111.03 11.93C111.50 11.41 111.73 10.77 111.73 10.01C111.73 9.66 111.68 9.35 111.56 9.06C111.44 8.78 111.31 8.55 111.17 8.37C111.02 8.19 110.82 8.02 110.56 7.86C110.30 7.70 110.08 7.58 109.92 7.50C109.76 7.43 109.54 7.34 109.26 7.22C109.22 7.21 109.10 7.16 108.91 7.08C108.71 7.01 108.59 6.96 108.54 6.94C108.50 6.91 108.39 6.87 108.22 6.80C108.05 6.73 107.94 6.67 107.89 6.64C107.84 6.60 107.75 6.54 107.62 6.45C107.49 6.37 107.40 6.30 107.35 6.24C107.31 6.18 107.24 6.10 107.16 6.00C107.07 5.90 107.01 5.80 106.98 5.70C106.95 5.61 106.92 5.50 106.89 5.38C106.86 5.25 106.85 5.12 106.85 4.98C106.85 4.41 107.05 3.95 107.44 3.62C107.84 3.29 108.33 3.12 108.92 3.12C110.05 3.12 110.83 3.77 111.27 5.07L111.68 4.90C111.47 4.23 111.14 3.69 110.67 3.29C110.20 2.89 109.62 2.69 108.93 2.69C108.24 2.69 107.64 2.90 107.14 3.33C106.63 3.76 106.37 4.33 106.37 5.04C106.37 5.39 106.44 5.71 106.59 5.99C106.73 6.27 106.95 6.51 107.23 6.71C107.52 6.91 107.77 7.07 108.00 7.17C108.23 7.28 108.53 7.41 108.89 7.55C109.17 7.65 109.36 7.72 109.47 7.77C109.57 7.82 109.74 7.90 109.98 8.02C110.23 8.13 110.40 8.24 110.51 8.34C110.62 8.45 110.74 8.58 110.89 8.75C111.03 8.92 111.13 9.11 111.19 9.32C111.24 9.54 111.27 9.78 111.27 10.05C111.27 10.72 111.08 11.27 110.71 11.68C110.33 12.09 109.76 12.29 109.00 12.29C107.77 12.29 106.83 11.44 106.19 9.74ZM131.87 7.70C131.87 6.33 132.25 5.22 133.01 4.38C133.77 3.53 134.77 3.11 136.02 3.11C137.22 3.11 138.27 3.54 139.17 4.41L139.17 3.81C138.32 3.06 137.27 2.69 136.02 2.69C134.67 2.69 133.56 3.16 132.70 4.09C131.84 5.03 131.40 6.23 131.40 7.70C131.40 9.17 131.84 10.37 132.70 11.30C133.56 12.24 134.67 12.71 136.02 12.71C137.27 12.71 138.32 12.34 139.17 11.59L139.17 11.03C138.31 11.87 137.26 12.29 136.02 12.29C134.77 12.29 133.77 11.87 133.01 11.03C132.25 10.18 131.87 9.07 131.87 7.70ZM148.48 2.80L148.48 9.24C148.48 10.29 148.77 11.13 149.34 11.77C149.91 12.42 150.66 12.74 151.61 12.74C152.55 12.74 153.30 12.42 153.87 11.77C154.44 11.13 154.73 10.29 154.73 9.24L154.73 2.80L154.31 2.80L154.31 9.24C154.31 10.17 154.05 10.92 153.55 11.47C153.04 12.02 152.39 12.29 151.61 12.29C150.82 12.29 150.18 12.02 149.67 11.47C149.16 10.92 148.90 10.17 148.90 9.24L148.90 2.80ZM164.60 2.80ZM164.18 2.80L164.18 12.60L164.60 12.60L164.60 8.48L166.15 8.48L169.27 12.60L169.82 12.60L166.63 8.47C167.52 8.41 168.24 8.15 168.78 7.67C169.31 7.20 169.58 6.52 169.58 5.64C169.58 4.71 169.28 4.00 168.67 3.52C168.07 3.04 167.27 2.80 166.28 2.80ZM164.60 3.21L166.28 3.21C167.15 3.21 167.84 3.41 168.36 3.83C168.89 4.24 169.15 4.85 169.15 5.64C169.15 6.44 168.89 7.04 168.36 7.45C167.84 7.87 167.15 8.08 166.28 8.08L164.60 8.08ZM178.22 2.80L178.22 12.60L180.32 12.60C182.45 12.60 183.51 11.69 183.51 9.87C183.51 9.19 183.28 8.62 182.81 8.17C182.33 7.72 181.77 7.41 181.10 7.25C182.34 7.02 182.95 6.30 182.95 5.11C182.95 4.40 182.70 3.84 182.19 3.42C181.68 3.01 180.96 2.80 180.04 2.80ZM178.64 7.08L178.64 3.21L180.04 3.21C180.81 3.21 181.42 3.37 181.87 3.71C182.31 4.05 182.53 4.51 182.53 5.11C182.53 5.60 182.40 5.99 182.13 6.31C181.86 6.62 181.55 6.83 181.20 6.93C180.84 7.03 180.46 7.08 180.04 7.08ZM178.64 7.48L180.32 7.48C180.72 7.48 181.12 7.56 181.52 7.72C181.93 7.88 182.28 8.16 182.59 8.54C182.90 8.92 183.05 9.37 183.05 9.87C183.05 11.42 182.14 12.19 180.32 12.19L178.64 12.19ZM193.03 7.48L197.37 7.48L197.37 7.08L193.03 7.08L193.03 3.21L197.65 3.21L197.65 2.80L192.61 2.80L192.61 12.60L197.65 12.60L197.65 12.19L193.03 12.19ZM207.03 2.80L207.03 12.60L209.41 12.60C210.83 12.60 211.97 12.15 212.82 11.25C213.67 10.35 214.10 9.17 214.10 7.70C214.10 6.23 213.67 5.05 212.82 4.15C211.97 3.25 210.83 2.80 209.41 2.80ZM207.45 3.22L209.41 3.22C210.71 3.22 211.74 3.63 212.51 4.46C213.27 5.28 213.65 6.37 213.65 7.70C213.65 9.09 213.28 10.18 212.52 10.98C211.76 11.78 210.73 12.18 209.41 12.18L207.45 12.18Z"></path></g></svg>